<svg width="85" height="24" viewBox="0 0 85 24" fill="none" xmlns="http://www.w3.org/2000/svg">
<path d="M72.674 6.81006H72.1928C71.6864 6.81006 71.2812 7.21512 71.2812 7.72145V15.5696C71.2812 16.0759 71.6864 16.4809 72.1928 16.4809H72.674C73.1804 16.4809 73.5855 16.0759 73.5855 15.5696V7.72145C73.5602 7.21512 73.1551 6.81006 72.674 6.81006Z" fill="#FF6400"/>
<path d="M57.2022 3.82275C56.7211 3.82275 56.3159 4.22782 56.3159 4.70883V15.5949C56.3159 16.0759 56.7211 16.481 57.2022 16.481H57.7339C58.1897 16.481 58.5696 16.1012 58.5696 15.6455V12.1012H59L62.4691 16.0759C62.6211 16.2531 62.8743 16.3797 63.1022 16.3797H63.7859C64.1151 16.3797 64.4189 16.2025 64.5455 15.8734C64.6721 15.5696 64.6468 15.2152 64.4189 14.962L60.9751 11.0126L63.9884 8.17718C64.2417 7.94934 64.3176 7.56959 64.191 7.24048C64.0644 6.91136 63.7606 6.70883 63.406 6.70883H62.7224C62.4945 6.70883 62.2919 6.78478 62.14 6.96199L59.1266 9.92402H58.5696V4.6582C58.5696 4.2025 58.1897 3.82275 57.7339 3.82275" fill="#FF6400"/>
<path d="M67.4073 3.82275C66.9261 3.82275 66.521 4.22782 66.521 4.70883V15.5949C66.521 16.0759 66.9261 16.481 67.4073 16.481H67.8884C68.3695 16.481 68.7746 16.0759 68.7746 15.5949V4.70883C68.7746 4.22782 68.3695 3.82275 67.8884 3.82275" fill="#FF6400"/>
<path d="M81.7898 11.6456L84.8284 8.00001C85.0056 7.77216 85.0563 7.49368 84.9297 7.24051C84.8031 6.98735 84.5498 6.83545 84.2713 6.83545H83.2078C83.0052 6.83545 82.8026 6.93672 82.6507 7.08861L80.3464 9.87342L78.0421 7.08861C77.9155 6.9114 77.7129 6.83545 77.485 6.83545H76.4215C76.143 6.83545 75.8897 6.98735 75.7631 7.24051C75.6365 7.49368 75.6872 7.79747 75.8644 8.00001L78.8524 11.6456L75.8391 15.2911C75.6618 15.519 75.6112 15.7975 75.7378 16.0506C75.8644 16.3038 76.1176 16.4557 76.3962 16.4557H77.4597C77.6623 16.4557 77.8649 16.3544 78.0168 16.2025L80.3211 13.4177L82.6254 16.2025C82.752 16.3798 82.9546 16.4557 83.1825 16.4557H84.246C84.5245 16.4557 84.7777 16.3038 84.9043 16.0506C85.031 15.7975 84.9803 15.4937 84.8031 15.2911L81.7898 11.6456Z" fill="#FF6400"/>
<path d="M72.1928 3.62004C71.6864 3.62004 71.2812 4.12637 71.2812 4.75928V5.31625C71.2812 5.67068 71.5851 5.97447 71.9396 5.97447H72.9019C73.2564 5.97447 73.5602 5.67068 73.5602 5.31625V4.73397C73.5602 4.10106 73.1551 3.59473 72.6486 3.59473" fill="#FF6400"/>
<path d="M34.5897 7.34175C33.83 6.88605 32.9691 6.6582 31.9815 6.6582C31.0193 6.6582 30.133 6.88605 29.3734 7.34175C28.6137 7.79744 28.0313 8.43036 27.6008 9.18985C27.1703 9.94934 26.9678 10.8101 26.9678 11.6962C26.9678 12.6076 27.1957 13.443 27.6008 14.2025C28.0313 14.962 28.639 15.5696 29.3734 16.0506C30.133 16.5063 30.994 16.7342 31.9815 16.7342C32.9437 16.7342 33.83 16.5063 34.5897 16.0506C35.3493 15.5949 35.9317 14.962 36.3622 14.2025C36.7927 13.443 36.9953 12.6076 36.9953 11.6962C36.9953 10.7848 36.7674 9.94934 36.3622 9.18985C35.9317 8.43036 35.324 7.79744 34.5897 7.34175ZM34.691 11.6962C34.691 12.2025 34.5897 12.6582 34.3618 13.0886C34.1339 13.519 33.83 13.8481 33.4249 14.1266C33.0197 14.3797 32.5386 14.5063 32.0068 14.5063C31.4751 14.5063 30.994 14.3797 30.5888 14.1266C30.1837 13.8734 29.8545 13.519 29.6519 13.0886C29.424 12.6582 29.3227 12.2025 29.3227 11.6962C29.3227 11.1899 29.424 10.7088 29.6519 10.2785C29.8798 9.84808 30.1837 9.51896 30.5888 9.24048C30.994 8.98732 31.4751 8.86074 32.0068 8.86074C32.5639 8.86074 33.045 8.98732 33.4249 9.24048C33.83 9.49365 34.1339 9.84808 34.3618 10.2785C34.5644 10.7088 34.691 11.1899 34.691 11.6962Z" fill="#002EB4"/>
<path d="M51.9354 7.34175C51.1757 6.88605 50.3148 6.6582 49.3272 6.6582C48.365 6.6582 47.4787 6.88605 46.7191 7.34175C45.9594 7.79744 45.377 8.43036 44.9465 9.18985C44.5161 9.94934 44.3135 10.8101 44.3135 11.6962C44.3135 12.6076 44.5414 13.443 44.9465 14.2025C45.377 14.962 45.9847 15.5696 46.7191 16.0506C47.4787 16.5063 48.3397 16.7342 49.3272 16.7342C50.2895 16.7342 51.1757 16.5063 51.9354 16.0506C52.695 15.5949 53.2774 14.962 53.7079 14.2025C54.1384 13.443 54.341 12.6076 54.341 11.6962C54.341 10.7848 54.1131 9.94934 53.7079 9.18985C53.2774 8.43036 52.695 7.79744 51.9354 7.34175ZM52.0367 11.6962C52.0367 12.2025 51.9354 12.6582 51.7075 13.0886C51.4796 13.519 51.1757 13.8481 50.7706 14.1266C50.3654 14.3797 49.8843 14.5063 49.3525 14.5063C48.8208 14.5063 48.3397 14.3797 47.9345 14.1266C47.5294 13.8734 47.2002 13.519 46.9976 13.0886C46.7697 12.6582 46.6684 12.2025 46.6684 11.6962C46.6684 11.1899 46.7697 10.7088 46.9976 10.2785C47.2255 9.84808 47.5294 9.51896 47.9345 9.24048C48.3397 8.98732 48.8208 8.86074 49.3525 8.86074C49.9096 8.86074 50.3907 8.98732 50.7706 9.24048C51.1757 9.49365 51.4796 9.84808 51.7075 10.2785C51.9101 10.7088 52.0367 11.1899 52.0367 11.6962Z" fill="#002EB4"/>
<path d="M39.6291 3.82275C39.1733 3.82275 38.7935 4.2025 38.7935 4.6582V14.9114C38.7935 15.8987 39.6038 16.7088 40.5913 16.7088H42.1613C42.6171 16.7088 42.9969 16.3291 42.9969 15.8734V15.3671C42.9969 14.9114 42.6171 14.5316 42.1613 14.5316H41.0724V9.03794H42.1613C42.6171 9.03794 42.9969 8.6582 42.9969 8.2025V7.72149C42.9969 7.26579 42.6171 6.88605 42.1613 6.88605H41.0724V4.73415C41.0724 4.27845 40.6926 3.8987 40.2368 3.8987" fill="#002EB4"/>
<path d="M12.1039 0C7.3687 0 3.24122 2.70886 1.26611 6.65823L3.72234 9.11392C4.38071 9.77215 4.68457 10.6582 4.70989 11.5696C4.70989 11.5696 4.70989 11.5696 4.70989 11.5949C4.70989 12.8354 5.19101 13.9494 6.1026 14.8354C7.01419 15.7468 8.10303 16.2025 9.34381 16.2278C9.7996 16.2278 10.2301 16.1772 10.6605 16.0506L7.01419 12.4051L7.69788 9.8481L10.2554 9.16456L13.8764 12.7848C14.003 12.3544 14.079 11.9241 14.0537 11.4684C14.0537 10.2278 13.5726 9.13924 12.661 8.22785C11.7494 7.31646 10.6605 6.83544 9.41977 6.83544C9.31848 6.83544 9.24252 6.83544 9.03994 6.81013C8.179 6.70886 7.39402 6.32911 6.78629 5.72152L6.22921 5.16456C7.79917 3.8481 9.85024 3.03798 12.0786 3.03798C17.067 3.03798 21.1438 7.06329 21.1438 12.0253C21.1438 12.3038 21.1185 12.557 21.1185 12.8354C21.0932 13.2405 21.2198 13.6456 21.4983 13.9241L23.5241 15.9494C23.9546 14.7089 24.1825 13.3924 24.1825 12.0253C24.2078 5.36709 18.7889 0 12.1039 0Z" fill="#FF6400"/>
<path d="M20.4854 14.9113C19.8271 14.2531 19.4979 13.367 19.4979 12.4556C19.4979 12.4556 19.4979 12.4556 19.4979 12.4303C19.4979 11.1898 19.0168 10.0758 18.1052 9.18977C17.1936 8.27838 16.1047 7.82268 14.864 7.79736C14.4082 7.79736 13.9777 7.848 13.5472 7.97458L17.1683 11.5948L16.4846 14.1518L13.9271 14.8353L10.306 11.2151C10.1794 11.6455 10.1288 12.0758 10.1288 12.5315C10.1288 13.772 10.6099 14.8607 11.5215 15.772C12.4331 16.6834 13.5219 17.1645 14.7627 17.1645C14.864 17.1645 14.9399 17.1645 15.1425 17.1898C16.0035 17.291 16.7884 17.6708 17.3962 18.2784L17.9532 18.8353C16.3833 20.1518 14.3322 20.9619 12.1039 20.9619C7.11546 20.9872 3.03863 16.9619 3.03863 11.9999C3.03863 11.7467 3.03863 11.5189 3.06395 11.291C3.08927 10.8353 2.96266 10.3796 2.63348 10.0758L0.65837 8.10116C0.227897 9.31635 0 10.6328 0 11.9999C0 18.6328 5.41889 23.9999 12.1039 23.9999C16.8391 23.9999 20.9665 21.291 22.9417 17.3417L20.4854 14.9113Z" fill="#002EB4"/>
</svg>
