<svg xmlns="http://www.w3.org/2000/svg" width="1000" height="1000" viewBox="0 0 1000 1000">
  <metadata><?xpacket begin="﻿" id="W5M0MpCehiHzreSzNTczkc9d"?>
<x:xmpmeta xmlns:x="adobe:ns:meta/" x:xmptk="Adobe XMP Core 5.6-c142 79.160924, 2017/07/13-01:06:39        ">
   <rdf:RDF xmlns:rdf="http://www.w3.org/1999/02/22-rdf-syntax-ns#">
      <rdf:Description rdf:about=""/>
   </rdf:RDF>
</x:xmpmeta>
                                                                                                    
                                                                                                    
                                                                                                    
                                                                                                    
                                                                                                    
                                                                                                    
                                                                                                    
                                                                                                    
                                                                                                    
                                                                                                    
                                                                                                    
                                                                                                    
                                                                                                    
                                                                                                    
                                                                                                    
                                                                                                    
                                                                                                    
                                                                                                    
                                                                                                    
                                                                                                    
                           
<?xpacket end="w"?></metadata>
<defs>
    <style>
      .cls-1 {
        fill: #ff6400;
      }

      .cls-1, .cls-2 {
        fill-rule: evenodd;
      }

      .cls-2 {
        fill: #002eb4;
      }
    </style>
  </defs>
  <path class="cls-1" d="M498.809,0.131c-196.515,0-367.809,110.8-449.778,272.33L150.967,372.9c27.322,26.925,39.933,63.164,40.984,100.442v1.034c0,50.739,19.967,96.3,57.8,132.542,37.832,37.277,83.02,55.916,134.513,56.951,18.916,0,36.782-2.07,54.644-7.248L287.581,507.518l28.374-104.585,106.139-27.956L572.369,523.048c5.254-17.6,8.408-35.2,7.358-53.843,0-50.742-19.966-95.267-57.8-132.545s-83.023-56.951-134.514-56.951a105.482,105.482,0,0,1-15.763-1.035,158.4,158.4,0,0,1-93.529-44.525L255,211.371A381.053,381.053,0,0,1,497.759,124.39c207.023,0,376.213,164.64,376.213,367.593,0,11.391-1.05,21.748-1.05,33.135-1.05,16.569,4.2,33.138,15.762,44.529l84.073,82.838a481.5,481.5,0,0,0,27.323-160.5C1001.13,219.653,776.242.131,498.809,0.131Z"/>
  <path class="cls-2" d="M844.709,630.776c-27.145-26.811-40.719-62.9-40.719-100.03v-1.031c0-50.53-19.838-95.907-57.428-132C708.973,360.592,664.073,342.03,612.913,341c-18.795,0-36.547,2.061-54.3,7.218L707.93,495.682,679.738,599.839,574.28,627.68,424.965,480.216c-5.22,17.531-7.307,35.059-7.307,53.622,0,50.53,19.838,94.877,57.428,132s82.486,56.722,133.65,56.722a104.645,104.645,0,0,1,15.661,1.03,157.233,157.233,0,0,1,92.93,44.343L740.3,790.616A378.063,378.063,0,0,1,499.1,877.24c-205.7,1.031-373.8-162.935-373.8-365.057,0-10.313,0-19.592,1.044-28.876,1.044-18.562-4.177-37.125-17.75-49.5L27.149,353.374A470.076,470.076,0,0,0,0,512.183C0,782.367,223.447,1000.99,499.1,1000.99c195.254,0,365.446-110.344,446.893-271.214Z"/>
</svg>
